<svg xmlns="http://www.w3.org/2000/svg" width="60" height="60" viewBox="0 0 60 60"><path d="M52.5,28.5938H49.6875V27.1875h-3.05a16.7782,16.7782,0,0,0-2.8857-6.9615L45.91,18.0677l-.9945-.9945,1.9891-1.989-1.9891-1.989-1.9889,1.989-.9946-.9945L39.7734,16.248a16.7823,16.7823,0,0,0-6.9615-2.8856v-3.05H31.4057V7.5H28.5932v2.8125H27.1875v3.05a16.7756,16.7756,0,0,0-6.9615,2.8857L18.0677,14.09l-.9945.9945-1.989-1.989-1.989,1.989,1.989,1.9891-.9945.9945,2.1583,2.1583a16.7823,16.7823,0,0,0-2.8856,6.9615h-3.05v1.4062H7.5v2.8125h2.8125v1.4057h3.05a16.7756,16.7756,0,0,0,2.8857,6.9615L14.09,41.9323l.9945.9945-1.989,1.989,1.989,1.989,1.9891-1.989.9945.9945,2.1583-2.1583a16.7823,16.7823,0,0,0,6.9615,2.8856v3.05h1.4062V52.5h2.8125V49.6875h1.4057v-3.05a16.7782,16.7782,0,0,0,6.9615-2.8857L41.9323,45.91l.9945-.9945,1.989,1.9891,1.989-1.9891-1.989-1.9889.9945-.9946L43.752,39.7734a16.7823,16.7823,0,0,0,2.8856-6.9615h3.05V31.4057H52.5ZM30,15.9375V18.75A11.2628,11.2628,0,0,0,18.75,30H15.9375A14.0784,14.0784,0,0,1,30,15.9375Z"/></svg>