<svg xmlns="http://www.w3.org/2000/svg" width="21.1667mm" height="21.1667mm" viewBox="0 0 60 60"><path d="M52.5,28.5938H49.6875V27.1875h-3.05a16.7788,16.7788,0,0,0-2.8857-6.9615L45.91,18.0677l-.9945-.9945,1.9891-1.989-1.9891-1.989-1.9889,1.989L41.932,14.09,39.7734,16.248a16.7818,16.7818,0,0,0-6.9615-2.8856v-3.05H31.4057V7.5H28.5932v2.8125H27.1875v3.05a16.7756,16.7756,0,0,0-6.9615,2.8857L18.0677,14.09l-.9945.9945-1.989-1.989-1.989,1.989,1.989,1.9891-.9945.9945,2.1583,2.1583a16.7818,16.7818,0,0,0-2.8856,6.9615h-3.05v1.4062H7.5v2.8125h2.8125v1.4057h3.05a16.7756,16.7756,0,0,0,2.8857,6.9615L14.09,41.9323l.9945.9945-1.989,1.989,1.989,1.989,1.9891-1.989.9945.9945,2.1583-2.1583a16.7818,16.7818,0,0,0,6.9615,2.8856v3.05h1.4062V52.5h2.8125V49.6875h1.4057v-3.05a16.7788,16.7788,0,0,0,6.9615-2.8857L41.9323,45.91l.9945-.9945,1.989,1.9891,1.989-1.9891-1.989-1.9889.9945-.9946L43.752,39.7734a16.7818,16.7818,0,0,0,2.8856-6.9615h3.05V31.4057H52.5Z" style="opacity:0.65"/><path d="M29.7091,35.6075c-1.4643,0-2.6028-2.8292-2.3751-5.04.3257-3.2529,3.4475-5.1382,3.4793-7.35.0318-.5852-.1615-1.6258-1.17-1.6258-1.0406,0-1.17,1.2035-1.2021,2.1143a4.8643,4.8643,0,0,1-.0344,1.5927,5.2255,5.2255,0,0,1-2.4387.5865c-2.0151,0-2.9577-1.2034-2.9259-2.7.0317-2.2758,2.7326-4.7807,6.895-4.7807,4.5835,0,7.0222,2.7975,7.0222,5.2362,0,2.5366-2.015,4-3.6408,7.0235C32.3093,32.5506,31.3985,35.6075,29.7091,35.6075Zm.13,7.74a3.2034,3.2034,0,1,1,3.1854-3.22A3.2007,3.2007,0,0,1,29.8389,43.3473Z" style="fill:#fff"/></svg>